<svg width="30" height="22" viewBox="0 0 30 22" fill="none" xmlns="http://www.w3.org/2000/svg">
    <path
        d="M28.6875 12.625C28.589 12.6988 28.4769 12.7526 28.3577 12.7831C28.2384 12.8137 28.1143 12.8205 27.9924 12.803C27.8705 12.7856 27.7533 12.7444 27.6473 12.6817C27.5414 12.6189 27.4489 12.536 27.375 12.4375C26.8099 11.6779 26.0744 11.0617 25.2277 10.6383C24.381 10.2149 23.4467 9.99629 22.5 9.99997C22.3156 9.99995 22.1354 9.94558 21.9818 9.84365C21.8281 9.74173 21.708 9.59677 21.6363 9.42692C21.5877 9.31158 21.5626 9.18765 21.5626 9.06247C21.5626 8.93728 21.5877 8.81335 21.6363 8.69801C21.708 8.52816 21.8281 8.3832 21.9818 8.28128C22.1354 8.17935 22.3156 8.12498 22.5 8.12496C23.026 8.12492 23.5415 7.97736 23.9878 7.69904C24.4342 7.42072 24.7936 7.0228 25.0251 6.55048C25.2567 6.07816 25.3511 5.55038 25.2977 5.02707C25.2444 4.50376 25.0453 4.00591 24.7231 3.59007C24.401 3.17423 23.9687 2.85706 23.4753 2.67459C22.982 2.49213 22.4473 2.45168 21.9321 2.55784C21.4169 2.664 20.9418 2.91251 20.5608 3.27515C20.1798 3.63779 19.9081 4.10002 19.7766 4.60934C19.7458 4.72861 19.6918 4.84064 19.6177 4.93905C19.5437 5.03746 19.4509 5.12032 19.3448 5.18289C19.2387 5.24546 19.1213 5.28652 18.9994 5.30373C18.8774 5.32093 18.7532 5.31395 18.634 5.28317C18.5147 5.25239 18.4027 5.19842 18.3043 5.12434C18.2059 5.05027 18.123 4.95753 18.0604 4.85143C17.9979 4.74534 17.9568 4.62795 17.9396 4.50598C17.9224 4.38402 17.9294 4.25986 17.9601 4.14059C18.1427 3.43432 18.4875 2.78039 18.9672 2.23085C19.447 1.6813 20.0483 1.2513 20.7235 0.975063C21.3986 0.698826 22.1289 0.583975 22.8563 0.639649C23.5836 0.695323 24.288 0.919986 24.9132 1.29576C25.5384 1.67153 26.0674 2.18805 26.4579 2.80421C26.8484 3.42036 27.0897 4.11915 27.1626 4.84498C27.2355 5.5708 27.138 6.30363 26.8778 6.98514C26.6177 7.66665 26.2021 8.27805 25.6641 8.77067C26.9388 9.32262 28.047 10.1985 28.8785 11.3113C28.9524 11.41 29.006 11.5224 29.0364 11.6419C29.0668 11.7614 29.0733 11.8857 29.0556 12.0078C29.0378 12.1298 28.9962 12.2471 28.933 12.353C28.8698 12.4589 28.7864 12.5513 28.6875 12.625ZM22.3734 19.8437C22.4413 19.9504 22.4868 20.0697 22.5073 20.1945C22.5278 20.3193 22.5229 20.4469 22.4928 20.5697C22.4628 20.6925 22.4081 20.808 22.3323 20.9091C22.2564 21.0103 22.1609 21.095 22.0514 21.1583C21.942 21.2216 21.8208 21.2621 21.6953 21.2773C21.5698 21.2926 21.4425 21.2823 21.3211 21.247C21.1996 21.2118 21.0866 21.1524 20.9887 21.0723C20.8908 20.9923 20.8102 20.8933 20.7516 20.7812C20.161 19.7812 19.3199 18.9525 18.3113 18.3768C17.3027 17.801 16.1614 17.4983 15 17.4983C13.8386 17.4983 12.6973 17.801 11.6887 18.3768C10.6801 18.9525 9.839 19.7812 9.24843 20.7812C9.18982 20.8933 9.10915 20.9923 9.01128 21.0723C8.91342 21.1524 8.80036 21.2118 8.67893 21.247C8.5575 21.2823 8.43019 21.2926 8.30468 21.2773C8.17916 21.2621 8.05802 21.2216 7.94856 21.1583C7.83909 21.095 7.74355 21.0103 7.66769 20.9091C7.59184 20.808 7.53722 20.6925 7.50714 20.5697C7.47706 20.4469 7.47213 20.3193 7.49265 20.1945C7.51317 20.0697 7.55872 19.9504 7.62655 19.8437C8.53546 18.282 9.92131 17.0531 11.5805 16.3375C10.6469 15.6227 9.96073 14.6333 9.61851 13.5084C9.27629 12.3834 9.29519 11.1796 9.67255 10.0659C10.0499 8.95233 10.7668 7.98496 11.7223 7.29982C12.6779 6.61468 13.8242 6.24621 15 6.24621C16.1758 6.24621 17.3221 6.61468 18.2776 7.29982C19.2332 7.98496 19.9501 8.95233 20.3274 10.0659C20.7048 11.1796 20.7237 12.3834 20.3815 13.5084C20.0393 14.6333 19.3531 15.6227 18.4195 16.3375C20.0787 17.0531 21.4645 18.282 22.3734 19.8437ZM15 15.625C15.7417 15.625 16.4667 15.405 17.0834 14.993C17.7001 14.5809 18.1807 13.9953 18.4645 13.31C18.7484 12.6248 18.8226 11.8708 18.6779 11.1434C18.5332 10.4159 18.1761 9.74776 17.6516 9.22331C17.1272 8.69887 16.459 8.34171 15.7316 8.19702C15.0042 8.05233 14.2502 8.12659 13.5649 8.41042C12.8797 8.69425 12.294 9.17489 11.882 9.79158C11.4699 10.4083 11.25 11.1333 11.25 11.875C11.25 12.8695 11.6451 13.8234 12.3483 14.5266C13.0516 15.2299 14.0054 15.625 15 15.625ZM8.43749 9.06247C8.43749 8.81382 8.33872 8.57537 8.1629 8.39955C7.98709 8.22374 7.74863 8.12496 7.49999 8.12496C6.97397 8.12492 6.4585 7.97736 6.01214 7.69904C5.56578 7.42072 5.20642 7.0228 4.97487 6.55048C4.74332 6.07816 4.64888 5.55038 4.70225 5.02707C4.75563 4.50376 4.95469 4.00591 5.27683 3.59007C5.59897 3.17423 6.03128 2.85706 6.52464 2.67459C7.018 2.49213 7.55264 2.45168 8.06784 2.55784C8.58304 2.664 9.05814 2.91251 9.43918 3.27515C9.82022 3.63779 10.0919 4.10002 10.2234 4.60934C10.2856 4.85021 10.4409 5.05652 10.6552 5.18289C10.8694 5.30926 11.1251 5.34533 11.366 5.28317C11.6069 5.22101 11.8132 5.06571 11.9396 4.85143C12.0659 4.63716 12.102 4.38146 12.0398 4.14059C11.8573 3.43432 11.5125 2.78039 11.0327 2.23085C10.553 1.6813 9.95165 1.2513 9.2765 0.975063C8.60135 0.698826 7.87104 0.583975 7.14369 0.639649C6.41634 0.695323 5.71202 0.919986 5.08678 1.29576C4.46153 1.67153 3.93262 2.18805 3.54212 2.80421C3.15163 3.42036 2.91032 4.11915 2.83741 4.84498C2.7645 5.5708 2.862 6.30363 3.12215 6.98514C3.3823 7.66665 3.79791 8.27805 4.33593 8.77067C3.06243 9.32314 1.95551 10.199 1.12499 11.3113C0.97565 11.5102 0.911444 11.7603 0.946497 12.0065C0.981551 12.2528 1.11299 12.475 1.3119 12.6244C1.51082 12.7737 1.76091 12.8379 2.00716 12.8029C2.25341 12.7678 2.47565 12.6364 2.62499 12.4375C3.19005 11.6779 3.92555 11.0617 4.77228 10.6383C5.61902 10.2149 6.55332 9.99629 7.49999 9.99997C7.74863 9.99997 7.98709 9.90119 8.1629 9.72538C8.33872 9.54956 8.43749 9.31111 8.43749 9.06247Z"
        fill="#C3C5C8" />
</svg>